<?xml version="1.0" standalone="no"?>
<!DOCTYPE svg PUBLIC "-//W3C//DTD SVG 20010904//EN"
 "http://www.w3.org/TR/2001/REC-SVG-20010904/DTD/svg10.dtd">
<svg version="1.0" xmlns="http://www.w3.org/2000/svg"
 width="700.000000pt" height="700.000000pt" viewBox="0 0 700.000000 700.000000"
 preserveAspectRatio="xMidYMid meet">
<metadata>
Created by potrace 1.14, written by Peter Selinger 2001-2017
</metadata>
<g transform="translate(0.000000,700.000000) scale(0.100000,-0.100000)"
fill="#000000" stroke="none">
<path d="M0 3500 l0 -3500 3500 0 3500 0 0 3500 0 3500 -3500 0 -3500 0 0
-3500z m2011 3178 c0 -13 1 -235 1 -495 l1 -472 -180 -180 -181 -180 -73 27
c-63 22 -90 26 -189 27 -148 0 -221 -16 -320 -72 -216 -123 -333 -332 -326
-583 4 -123 26 -199 87 -302 86 -142 256 -268 398 -293 19 -3 38 -8 42 -11 21
-13 167 -7 259 11 41 8 134 50 186 84 126 82 210 187 261 325 23 64 28 102 28
226 -1 97 -5 126 -26 187 l-25 73 213 212 c118 117 226 233 241 258 l27 45 2
540 c1 297 2 552 2 568 l1 27 353 -2 352 -3 0 -801 0 -801 -65 -31 c-224 -107
-360 -332 -355 -587 5 -219 108 -401 294 -520 82 -52 136 -73 228 -89 182 -32
368 16 508 129 67 55 83 73 138 154 212 317 79 764 -275 922 l-48 22 0 803 0
804 354 0 355 0 0 -489 c0 -477 0 -489 21 -533 65 -139 255 -165 353 -49 49
59 50 72 51 589 l0 482 998 0 998 0 0 -220 0 -220 -692 0 c-381 0 -703 -2
-715 -4 -59 -12 -121 -66 -147 -128 -45 -107 15 -243 124 -280 26 -8 221 -11
733 -12 l697 0 0 -1486 0 -1487 -489 0 c-485 0 -489 0 -535 -22 -170 -83 -158
-323 19 -391 21 -8 173 -12 518 -12 l487 -1 0 -353 0 -353 -502 -3 -503 -3
-47 -32 c-87 -61 -117 -173 -72 -268 22 -47 86 -101 132 -112 20 -5 252 -8
515 -8 l477 0 0 -502 0 -503 -855 0 c-677 0 -855 3 -856 13 0 6 -1 712 -1
1567 l-1 1555 241 362 241 361 38 -9 c39 -9 198 -13 211 -5 4 2 23 7 44 10
153 24 331 156 418 310 56 100 71 159 76 291 6 167 -43 309 -149 431 -121 140
-264 210 -448 221 -322 19 -601 -202 -664 -526 -11 -54 -5 -198 10 -256 16
-60 58 -156 91 -207 l18 -27 -266 -399 c-158 -236 -270 -415 -276 -438 -7 -25
-10 -607 -9 -1646 l2 -1608 -427 0 -427 0 1 945 0 946 35 14 c89 38 162 93
261 200 6 8 30 47 52 87 99 183 100 420 3 596 -83 151 -204 254 -368 310 -57
20 -90 25 -183 27 -182 6 -339 -59 -469 -192 -121 -124 -186 -296 -178 -468 5
-96 20 -155 67 -255 53 -112 166 -226 280 -284 l76 -39 1 -943 0 -944 -355 0
-354 0 -1 338 c0 185 -2 347 -5 360 -10 57 -74 131 -132 153 -69 26 -180 1
-229 -52 -54 -59 -57 -77 -57 -449 l-1 -345 -355 -3 -355 -2 1 345 c1 337 0
347 -21 393 -27 56 -56 85 -110 107 -113 48 -247 -14 -280 -130 -11 -38 -14
-121 -14 -355 0 -168 0 -317 -1 -332 l0 -28 -360 0 -360 0 0 1494 0 1493 469
0 469 0 132 -298 133 -298 -30 -35 c-116 -131 -171 -286 -165 -464 2 -75 13
-124 49 -212 69 -170 218 -306 398 -363 56 -18 94 -22 190 -22 124 0 168 10
275 58 145 66 284 231 335 397 26 86 28 244 4 332 -78 282 -322 475 -605 479
l-62 1 -27 62 c-15 33 -54 122 -87 196 -81 182 -186 415 -210 468 -22 47 -66
88 -116 109 -27 11 -141 14 -592 15 l-560 1 0 1493 0 1494 855 0 855 0 1 -22z
m-544 -1711 c78 -41 125 -122 118 -205 -10 -120 -92 -197 -210 -196 -66 1
-109 19 -151 62 -133 138 -25 369 168 356 25 -1 59 -9 75 -17z m4219 8 c180
-51 200 -304 31 -392 -50 -26 -143 -22 -194 7 -72 40 -113 114 -109 196 5 80
53 150 127 183 47 21 84 23 145 6z m-2273 -279 c28 -5 82 -38 105 -66 7 -8 22
-33 32 -55 82 -169 -104 -354 -276 -276 -157 71 -170 280 -23 375 26 16 104
35 124 30 6 -2 22 -6 38 -8z m164 -1707 c42 -13 98 -68 118 -115 23 -55 19
-122 -10 -180 -66 -131 -244 -153 -342 -41 -105 120 -48 303 110 345 35 10 74
7 124 -9z m-1549 -570 c102 -39 155 -185 103 -287 -84 -165 -319 -153 -386 21
-54 143 63 297 213 281 23 -3 55 -9 70 -15z"/>
</g>
</svg>
